<svg width="260" height="68" viewBox="0 0 260 68" fill="none" xmlns="http://www.w3.org/2000/svg">
<path d="M161.276 0C155.909 0 145.674 2.399 145.674 15.2675V52.8611C145.923 61.0613 154.162 68 161.276 68C167.517 68 176.628 65.0994 176.628 51.3485V15.2675C176.628 3.0303 166.644 0 161.276 0ZM128.074 0.128127V10.9771C128.074 10.9771 129.572 11.7328 129.572 14.8868V46.4261C129.572 53.617 125.453 53.6165 120.086 50.3364V64.0876C126.451 68.2507 142.554 73.1709 142.554 51.4718V15.8968C142.554 12.7428 144.05 11.9839 144.05 11.9839V0.504077L128.074 0.127079L128.074 0.128127ZM103.234 1.00996L84.3872 2.77617L80.8292 27.503L77.2711 52.2298L77.3947 52.7344C77.3947 55.8883 75.8981 56.6453 75.8981 56.6453V65.9809H90.3774V56.6448C90.3774 56.6448 88.8806 55.8883 88.8806 52.7344V49.7061H96.2456V52.7344C96.2456 55.8883 94.7462 56.6448 94.7462 56.6448V65.9809H110.848V56.6453C110.848 56.6453 109.352 55.8883 109.352 52.7344L103.234 1.00996ZM179 2.52284V15.898C179 15.898 180.748 17.0315 180.748 20.1854V52.8601C180.748 56.014 179 56.7704 179 56.7704V66.2322H193.23V56.7704C193.23 56.7704 191.733 56.014 191.733 52.8601V42.2624H196.85V52.8601C196.85 56.014 195.351 56.7704 195.351 56.7704V66.2322H210.081V56.6448C210.081 56.6448 208.708 55.8883 208.708 52.7344L208.584 23.7183C208.584 20.5643 210.329 19.4284 210.329 19.4284V9.21019L195.602 5.67678V17.4104C195.602 17.4104 196.85 18.1668 196.85 21.3208V31.539H191.733V21.3208C191.733 18.1668 193.478 17.0309 193.478 17.0309V5.04599L179 2.52284ZM65.8948 5.65457C64.7968 5.64662 63.6329 5.7413 62.4159 5.93054C62.4159 5.93054 56.1753 6.81216 48.5607 10.0922V19.4283C48.5607 19.4283 50.06 20.6914 50.06 22.8361V52.7341C50.06 55.888 48.5607 56.6445 48.5607 56.6445V65.9806H62.2911V56.6445C62.2911 56.6445 60.7942 55.888 60.7942 52.7341V49.5802H67.284C72.6513 49.203 77.2697 46.4288 77.1449 36.0839V17.7911C77.2697 12.2402 75.2736 10.4724 73.7757 8.70625C71.9034 6.62465 69.188 5.67948 65.8938 5.65577L65.8948 5.65457ZM212.448 9.33584V19.9335C212.448 19.9335 213.821 21.0695 213.821 24.2234V54.5011C214.195 56.3935 212.448 56.6448 212.448 56.6448H212.573V66.3604H222.683V56.8986C222.683 56.8986 221.559 57.15 221.559 53.996V45.165L227.052 66.232H236.664V31.1615C236.664 28.0076 238.41 26.8717 238.41 26.8717V17.5355L227.676 13.8765V25.4845C227.676 25.4845 229.048 26.6204 229.048 29.7743L228.924 39.1079L224.056 12.3676L212.447 9.33987L212.448 9.33584ZM40.9429 11.3544L27.4609 15.0142L21.9712 53.8706C21.9712 56.1414 20.9716 56.645 20.9716 56.645V65.9819H32.4543V56.6458C32.4543 56.6458 31.3328 56.1422 31.3328 53.8713V51.5995H35.7016V53.8713C35.7016 56.1422 34.702 56.6458 34.702 56.6458V65.9814H46.6845V56.6453H46.5601C46.5601 56.6453 45.4362 56.1417 45.4362 53.8708L40.9429 11.3544ZM161.333 13.8775C162.674 13.8775 164.017 15.0144 164.017 17.2853V50.2123C164.017 54.3755 158.651 54.3755 158.651 50.2123V17.2853C158.651 15.0144 159.991 13.8775 161.333 13.8775ZM92.4944 14.888L95.4881 40.3705H89.7468L92.4944 14.888ZM61.038 16.6547H62.5374C63.1615 16.6547 65.4068 16.9061 65.4068 21.3215V33.6859C65.4068 35.0737 64.7841 38.4784 62.5374 38.4784H61.038V16.6547ZM241.531 18.2932C239.159 18.2932 239.16 21.7015 240.782 22.2061C241.781 22.4585 241.657 22.8369 241.282 23.4677L240.283 24.4755L241.033 25.4857L243.03 23.4677C245.277 21.1969 244.277 18.2932 241.531 18.2932ZM13.4184 20.8366C12.568 20.8346 11.6729 20.913 10.7367 21.0707C10.7367 21.0707 5.86664 22.7097 0 25.1067V32.0453C0 32.0453 1.12389 32.9284 1.12389 34.5685V53.7456C1.12389 56.0165 0 56.6457 0 56.6457V65.9819H10.7367V56.5201C10.7367 56.5201 9.61281 55.8883 9.61281 53.6175V51.3481H14.6057C18.7248 51.0958 21.3466 47.1855 21.3466 42.3915V29.6471C21.3466 26.6193 20.8468 24.3495 19.5986 23.0879C18.1007 21.574 15.9695 20.8425 13.4184 20.8366ZM249.395 22.5219C248.546 22.5692 247.766 22.7112 247.018 22.8373C242.399 23.7204 239.404 29.2708 239.404 36.8408C239.404 41.887 241.402 44.1569 242.9 45.9231C244.023 47.3108 246.394 48.7 248.141 49.3308C250.014 49.9616 252.386 49.9616 252.386 53.7463C252.386 59.8019 248.142 58.9175 248.142 56.5205V51.3486H239.529V61.8181C242.899 66.6121 246.394 67.6218 250.638 67.3695C254.882 67.2434 260 62.0724 260 57.5308V48.8254C260 43.4007 256.878 41.8863 254.008 40.1201C251.137 38.3539 248.018 39.1098 248.018 34.6943C248.018 31.1619 252.262 29.648 252.262 37.2175H259.876V27.63C255.101 23.0884 251.94 22.38 249.395 22.5219ZM33.9516 26.3682L35.6996 44.9146H31.8281L33.9516 26.3682ZM9.6113 29.017H10.7352C11.2345 29.017 12.9805 29.2703 12.9805 32.5504V41.8865C12.9805 42.8958 12.4827 45.4174 10.7352 45.4174H9.6113V29.017Z" fill="#E75002"/>
</svg>
