<svg width="1088" height="661" viewBox="0 0 1088 661" fill="none" xmlns="http://www.w3.org/2000/svg">
<g filter="url(#filter0_d_4_24)">
<rect x="4" width="1080" height="653" rx="32" fill="#2D2D2D"/>
<rect x="4.5" y="0.5" width="1079" height="652" rx="31.5" stroke="black"/>
</g>
<path d="M146.768 160.432C144.016 160.432 141.872 159.856 140.336 158.704C138.832 157.552 137.776 156 137.168 154.048C136.592 152.096 136.304 149.92 136.304 147.52V133.792C136.304 131.168 136.592 128.88 137.168 126.928C137.776 124.976 138.832 123.472 140.336 122.416C141.872 121.328 144.016 120.784 146.768 120.784C149.2 120.784 151.12 121.232 152.528 122.128C153.968 123.024 154.992 124.304 155.6 125.968C156.24 127.632 156.56 129.632 156.56 131.968V135.04H151.424V132.304C151.424 130.864 151.344 129.6 151.184 128.512C151.056 127.392 150.672 126.528 150.032 125.92C149.392 125.312 148.32 125.008 146.816 125.008C145.28 125.008 144.16 125.344 143.456 126.016C142.752 126.656 142.288 127.584 142.064 128.8C141.872 129.984 141.776 131.376 141.776 132.976V148.384C141.776 150.336 141.936 151.888 142.256 153.04C142.576 154.16 143.104 154.96 143.84 155.44C144.576 155.92 145.568 156.16 146.816 156.16C148.288 156.16 149.344 155.84 149.984 155.2C150.624 154.528 151.024 153.616 151.184 152.464C151.344 151.312 151.424 149.968 151.424 148.432V145.552H156.56V148.432C156.56 150.8 156.272 152.896 155.696 154.72C155.12 156.512 154.128 157.92 152.72 158.944C151.312 159.936 149.328 160.432 146.768 160.432ZM166.287 160.384C165.199 160.384 164.239 160.08 163.407 159.472C162.575 158.832 161.919 158.032 161.439 157.072C160.959 156.08 160.719 155.04 160.719 153.952C160.719 152.224 161.007 150.768 161.583 149.584C162.159 148.4 162.943 147.408 163.935 146.608C164.959 145.776 166.127 145.056 167.439 144.448C168.783 143.84 170.191 143.248 171.663 142.672V140.704C171.663 139.584 171.599 138.656 171.471 137.92C171.343 137.184 171.071 136.64 170.655 136.288C170.271 135.904 169.679 135.712 168.879 135.712C168.175 135.712 167.599 135.872 167.151 136.192C166.735 136.512 166.431 136.976 166.239 137.584C166.047 138.16 165.951 138.848 165.951 139.648V141.04L160.863 140.848C160.927 137.776 161.631 135.52 162.975 134.08C164.319 132.608 166.399 131.872 169.215 131.872C171.967 131.872 173.919 132.624 175.071 134.128C176.223 135.632 176.799 137.808 176.799 140.656V153.328C176.799 154.192 176.815 155.024 176.847 155.824C176.911 156.624 176.975 157.376 177.039 158.08C177.135 158.752 177.215 159.392 177.279 160H172.575C172.479 159.488 172.351 158.848 172.191 158.08C172.063 157.28 171.967 156.56 171.903 155.92C171.583 157.008 170.959 158.032 170.031 158.992C169.135 159.92 167.887 160.384 166.287 160.384ZM168.303 155.968C168.815 155.968 169.295 155.824 169.743 155.536C170.191 155.248 170.591 154.928 170.943 154.576C171.295 154.192 171.535 153.888 171.663 153.664V145.792C170.863 146.24 170.111 146.688 169.407 147.136C168.703 147.584 168.079 148.064 167.535 148.576C167.023 149.056 166.607 149.616 166.287 150.256C165.999 150.864 165.855 151.568 165.855 152.368C165.855 153.488 166.063 154.368 166.479 155.008C166.895 155.648 167.503 155.968 168.303 155.968ZM182.213 160V121.12H187.349V160H182.213ZM193.181 160V121.12H198.317V160H193.181ZM218.623 160.384C217.535 160.384 216.687 160.096 216.079 159.52C215.471 158.944 215.039 158.224 214.783 157.36C214.559 156.496 214.447 155.616 214.447 154.72V132.256H219.583V153.184C219.583 154.176 219.727 154.96 220.015 155.536C220.303 156.08 220.895 156.352 221.791 156.352C222.367 156.352 222.959 156.192 223.567 155.872C224.207 155.52 224.815 155.104 225.391 154.624V132.256H230.527V160H225.391V157.264C224.495 158.128 223.471 158.864 222.319 159.472C221.199 160.08 219.967 160.384 218.623 160.384ZM242.212 160.384C239.94 160.384 238.116 159.68 236.74 158.272C235.364 156.832 234.58 154.944 234.388 152.608L238.66 151.312C238.916 153.072 239.348 154.4 239.956 155.296C240.564 156.16 241.46 156.592 242.644 156.592C243.572 156.592 244.276 156.336 244.756 155.824C245.236 155.28 245.476 154.56 245.476 153.664C245.476 152.864 245.3 152.144 244.948 151.504C244.596 150.864 244.02 150.208 243.22 149.536L238.468 145.456C237.508 144.624 236.692 143.696 236.02 142.672C235.38 141.648 235.06 140.32 235.06 138.688C235.06 137.216 235.348 135.984 235.924 134.992C236.532 133.968 237.364 133.2 238.42 132.688C239.508 132.144 240.772 131.872 242.212 131.872C244.42 131.872 246.1 132.592 247.252 134.032C248.436 135.44 249.108 137.152 249.268 139.168L245.812 140.464C245.684 139.504 245.492 138.672 245.236 137.968C244.98 137.232 244.628 136.672 244.18 136.288C243.732 135.872 243.14 135.664 242.404 135.664C241.572 135.664 240.9 135.952 240.388 136.528C239.908 137.072 239.668 137.728 239.668 138.496C239.668 138.976 239.764 139.456 239.956 139.936C240.18 140.384 240.548 140.832 241.06 141.28L245.956 145.792C246.628 146.4 247.252 147.056 247.828 147.76C248.436 148.464 248.932 149.264 249.316 150.16C249.7 151.056 249.892 152.096 249.892 153.28C249.892 154.848 249.572 156.16 248.932 157.216C248.292 158.272 247.396 159.072 246.244 159.616C245.092 160.128 243.748 160.384 242.212 160.384Z" fill="white"/>
<path d="M592.117 468C583.86 468 568.113 471.069 568.113 487.533V535.631C568.497 546.123 581.172 555 592.117 555C601.719 555 615.736 551.289 615.736 533.696V487.533C615.736 471.877 600.375 468 592.117 468ZM541.036 468.164V482.044C541.036 482.044 543.341 483.011 543.341 487.046V527.398C543.341 536.598 537.004 536.598 528.747 532.401V549.994C538.541 555.321 563.313 561.616 563.313 533.854V488.339C563.313 484.303 565.616 483.332 565.616 483.332V468.645L541.038 468.163L541.036 468.164ZM502.822 469.292L473.826 471.552L468.353 503.188L462.879 534.823L463.069 535.469C463.069 539.504 460.766 540.473 460.766 540.473V552.417H483.042V540.472C483.042 540.472 480.739 539.504 480.739 535.469V531.595H492.07V535.469C492.07 539.504 489.763 540.472 489.763 540.472V552.417H514.536V540.473C514.536 540.473 512.233 539.504 512.233 535.469L502.822 469.292ZM619.384 471.228V488.34C619.384 488.34 622.074 489.79 622.074 493.825V535.63C622.074 539.665 619.384 540.633 619.384 540.633V552.738H641.276V540.633C641.276 540.633 638.973 539.665 638.973 535.63V522.071H646.846V535.63C646.846 539.665 644.539 540.633 644.539 540.633V552.738H667.201V540.472C667.201 540.472 665.09 539.504 665.09 535.469L664.898 498.345C664.898 494.31 667.584 492.857 667.584 492.857V479.784L644.926 475.263V490.275C644.926 490.275 646.846 491.243 646.846 495.278V508.351H638.973V495.278C638.973 491.243 641.659 489.79 641.659 489.79V474.456L619.384 471.228ZM445.377 475.235C443.687 475.224 441.897 475.345 440.024 475.588C440.024 475.588 430.424 476.716 418.709 480.912V492.857C418.709 492.857 421.015 494.473 421.015 497.217V535.469C421.015 539.504 418.709 540.472 418.709 540.472V552.416H439.832V540.472C439.832 540.472 437.53 539.504 437.53 535.469V531.433H447.514C455.771 530.951 462.877 527.402 462.684 514.166V490.762C462.877 483.66 459.806 481.399 457.501 479.139C454.621 476.476 450.443 475.266 445.375 475.236L445.377 475.235ZM670.844 479.944V493.503C670.844 493.503 672.955 494.957 672.955 498.992V537.729C673.531 540.15 670.844 540.472 670.844 540.472H671.035V552.902H686.589V540.797C686.589 540.797 684.86 541.118 684.86 537.083V525.785L693.31 552.738H708.099V507.868C708.099 503.833 710.785 502.38 710.785 502.38V490.435L694.27 485.754V500.605C694.27 500.605 696.382 502.058 696.382 506.094L696.191 518.035L688.701 483.823L670.842 479.95L670.844 479.944ZM406.989 482.527L386.247 487.209L377.802 536.923C377.802 539.828 376.264 540.472 376.264 540.472V552.418H393.93V540.473C393.93 540.473 392.204 539.829 392.204 536.924V534.017H398.926V536.924C398.926 539.829 397.388 540.473 397.388 540.473V552.417H415.822V540.473H415.631C415.631 540.473 413.902 539.828 413.902 536.923L406.989 482.527ZM592.204 485.755C594.268 485.755 596.333 487.21 596.333 490.115V532.242C596.333 537.569 588.078 537.569 588.078 532.242V490.115C588.078 487.21 590.14 485.755 592.204 485.755ZM486.299 487.048L490.905 519.65H482.072L486.299 487.048ZM437.905 489.308H440.211C441.171 489.308 444.626 489.63 444.626 495.279V511.098C444.626 512.874 443.668 517.23 440.211 517.23H437.905V489.308ZM715.586 491.405C711.937 491.405 711.938 495.765 714.434 496.411C715.971 496.734 715.779 497.218 715.203 498.025L713.665 499.314L714.821 500.607L717.892 498.025C721.349 495.12 719.811 491.405 715.586 491.405ZM364.644 494.659C363.335 494.656 361.958 494.756 360.518 494.958C360.518 494.958 353.026 497.055 344 500.122V508.999C344 508.999 345.729 510.129 345.729 512.227V536.763C345.729 539.668 344 540.473 344 540.473V552.418H360.518V540.312C360.518 540.312 358.789 539.504 358.789 536.599V533.695H366.47C372.807 533.373 376.841 528.37 376.841 522.236V505.931C376.841 502.057 376.072 499.153 374.152 497.539C371.847 495.602 368.568 494.666 364.644 494.659ZM727.684 496.815C726.379 496.875 725.179 497.057 724.027 497.218C716.922 498.348 712.314 505.449 712.314 515.134C712.314 521.591 715.388 524.495 717.692 526.754C719.42 528.53 723.068 530.307 725.756 531.114C728.637 531.921 732.286 531.921 732.286 536.764C732.286 544.511 725.757 543.38 725.757 540.313V533.696H712.506V547.091C717.691 553.224 723.068 554.516 729.597 554.193C736.127 554.032 744 547.416 744 541.606V530.468C744 523.527 739.198 521.59 734.781 519.33C730.364 517.07 725.566 518.038 725.566 512.388C725.566 507.869 732.095 505.932 732.095 515.616H743.809V503.35C736.463 497.54 731.6 496.633 727.684 496.815ZM396.233 501.736L398.922 525.464H392.966L396.233 501.736ZM358.787 505.125H360.516C361.284 505.125 363.97 505.449 363.97 509.645V521.59C363.97 522.881 363.204 526.108 360.516 526.108H358.787V505.125Z" fill="white"/>
<path d="M158 192.625C158.796 192.625 159.559 192.902 160.121 193.394C160.684 193.886 161 194.554 161 195.25V226.75C161 227.446 160.684 228.114 160.121 228.606C159.559 229.098 158.796 229.375 158 229.375H140C139.204 229.375 138.441 229.098 137.879 228.606C137.316 228.114 137 227.446 137 226.75V195.25C137 194.554 137.316 193.886 137.879 193.394C138.441 192.902 139.204 192.625 140 192.625H158ZM140 190C138.409 190 136.883 190.553 135.757 191.538C134.632 192.522 134 193.858 134 195.25V226.75C134 228.142 134.632 229.478 135.757 230.462C136.883 231.447 138.409 232 140 232H158C159.591 232 161.117 231.447 162.243 230.462C163.368 229.478 164 228.142 164 226.75V195.25C164 193.858 163.368 192.522 162.243 191.538C161.117 190.553 159.591 190 158 190H140Z" fill="white"/>
<path d="M149 226.75C149.796 226.75 150.559 226.473 151.121 225.981C151.684 225.489 152 224.821 152 224.125C152 223.429 151.684 222.761 151.121 222.269C150.559 221.777 149.796 221.5 149 221.5C148.204 221.5 147.441 221.777 146.879 222.269C146.316 222.761 146 223.429 146 224.125C146 224.821 146.316 225.489 146.879 225.981C147.441 226.473 148.204 226.75 149 226.75Z" fill="white"/>
<path d="M158 262.625C158.796 262.625 159.559 262.902 160.121 263.394C160.684 263.886 161 264.554 161 265.25V296.75C161 297.446 160.684 298.114 160.121 298.606C159.559 299.098 158.796 299.375 158 299.375H140C139.204 299.375 138.441 299.098 137.879 298.606C137.316 298.114 137 297.446 137 296.75V265.25C137 264.554 137.316 263.886 137.879 263.394C138.441 262.902 139.204 262.625 140 262.625H158ZM140 260C138.409 260 136.883 260.553 135.757 261.538C134.632 262.522 134 263.858 134 265.25V296.75C134 298.142 134.632 299.478 135.757 300.462C136.883 301.447 138.409 302 140 302H158C159.591 302 161.117 301.447 162.243 300.462C163.368 299.478 164 298.142 164 296.75V265.25C164 263.858 163.368 262.522 162.243 261.538C161.117 260.553 159.591 260 158 260H140Z" fill="white"/>
<path d="M149 296.75C149.796 296.75 150.559 296.473 151.121 295.981C151.684 295.489 152 294.821 152 294.125C152 293.429 151.684 292.761 151.121 292.269C150.559 291.776 149.796 291.5 149 291.5C148.204 291.5 147.441 291.776 146.879 292.269C146.316 292.761 146 293.429 146 294.125C146 294.821 146.316 295.489 146.879 295.981C147.441 296.473 148.204 296.75 149 296.75Z" fill="white"/>
<path d="M182.576 232.208C181.36 232.187 180.357 231.867 179.568 231.248C178.8 230.651 178.192 229.819 177.744 228.752C177.296 227.685 176.965 226.469 176.752 225.104C176.56 223.739 176.443 222.277 176.4 220.72C176.357 219.163 176.336 217.605 176.336 216.048C176.336 214.469 176.357 212.912 176.4 211.376C176.443 209.819 176.56 208.357 176.752 206.992C176.965 205.605 177.296 204.379 177.744 203.312C178.192 202.245 178.8 201.403 179.568 200.784C180.357 200.165 181.36 199.856 182.576 199.856V202.16C181.829 202.181 181.253 202.608 180.848 203.44C180.443 204.251 180.155 205.328 179.984 206.672C179.813 208.016 179.707 209.509 179.664 211.152C179.643 212.773 179.632 214.405 179.632 216.048C179.632 217.712 179.643 219.365 179.664 221.008C179.707 222.629 179.813 224.112 179.984 225.456C180.155 226.8 180.443 227.877 180.848 228.688C181.253 229.499 181.829 229.915 182.576 229.936V232.208ZM184.843 226V223.568L191.435 213.296C191.926 212.528 192.374 211.813 192.779 211.152C193.206 210.491 193.547 209.797 193.803 209.072C194.081 208.325 194.219 207.472 194.219 206.512C194.219 205.317 194.027 204.379 193.643 203.696C193.259 203.013 192.587 202.672 191.627 202.672C190.817 202.672 190.187 202.896 189.739 203.344C189.291 203.792 188.982 204.379 188.811 205.104C188.641 205.829 188.555 206.608 188.555 207.44V208.304H185.131V207.408C185.131 205.851 185.334 204.517 185.739 203.408C186.166 202.277 186.838 201.403 187.755 200.784C188.694 200.165 189.931 199.856 191.467 199.856C193.558 199.856 195.115 200.453 196.139 201.648C197.163 202.821 197.675 204.453 197.675 206.544C197.675 207.653 197.537 208.624 197.259 209.456C197.003 210.288 196.662 211.067 196.235 211.792C195.809 212.517 195.339 213.264 194.827 214.032L188.875 223.12H197.067V226H184.843ZM204.285 226V204.56C204.263 204.581 204.018 204.645 203.549 204.752C203.101 204.859 202.589 204.965 202.013 205.072C201.437 205.179 200.925 205.275 200.477 205.36C200.029 205.445 199.794 205.488 199.773 205.488V202.896C200.135 202.811 200.551 202.693 201.021 202.544C201.511 202.395 202.002 202.213 202.493 202C203.005 201.787 203.485 201.52 203.933 201.2C204.402 200.88 204.797 200.507 205.117 200.08H207.709V226H204.285ZM212.812 226V223.568L219.404 213.296C219.895 212.528 220.343 211.813 220.748 211.152C221.175 210.491 221.516 209.797 221.772 209.072C222.049 208.325 222.188 207.472 222.188 206.512C222.188 205.317 221.996 204.379 221.612 203.696C221.228 203.013 220.556 202.672 219.596 202.672C218.785 202.672 218.156 202.896 217.708 203.344C217.26 203.792 216.951 204.379 216.78 205.104C216.609 205.829 216.524 206.608 216.524 207.44V208.304H213.1V207.408C213.1 205.851 213.303 204.517 213.708 203.408C214.135 202.277 214.807 201.403 215.724 200.784C216.663 200.165 217.9 199.856 219.436 199.856C221.527 199.856 223.084 200.453 224.108 201.648C225.132 202.821 225.644 204.453 225.644 206.544C225.644 207.653 225.505 208.624 225.228 209.456C224.972 210.288 224.631 211.067 224.204 211.792C223.777 212.517 223.308 213.264 222.796 214.032L216.844 223.12H225.036V226H212.812ZM227.709 232.208V229.904C228.477 229.883 229.064 229.456 229.469 228.624C229.875 227.813 230.163 226.736 230.333 225.392C230.504 224.048 230.6 222.555 230.621 220.912C230.664 219.269 230.685 217.627 230.685 215.984C230.685 214.32 230.664 212.677 230.621 211.056C230.6 209.413 230.504 207.931 230.333 206.608C230.163 205.264 229.875 204.187 229.469 203.376C229.064 202.565 228.477 202.149 227.709 202.128V199.856C228.947 199.856 229.949 200.165 230.717 200.784C231.507 201.381 232.125 202.213 232.573 203.28C233.021 204.347 233.341 205.573 233.533 206.96C233.747 208.325 233.875 209.776 233.917 211.312C233.96 212.848 233.981 214.405 233.981 215.984C233.981 217.563 233.96 219.131 233.917 220.688C233.875 222.224 233.747 223.685 233.533 225.072C233.341 226.459 233.021 227.685 232.573 228.752C232.125 229.819 231.507 230.651 230.717 231.248C229.949 231.867 228.947 232.187 227.709 232.208ZM247.878 226V204.56C247.857 204.581 247.612 204.645 247.142 204.752C246.694 204.859 246.182 204.965 245.606 205.072C245.03 205.179 244.518 205.275 244.07 205.36C243.622 205.445 243.388 205.488 243.366 205.488V202.896C243.729 202.811 244.145 202.693 244.614 202.544C245.105 202.395 245.596 202.213 246.086 202C246.598 201.787 247.078 201.52 247.526 201.2C247.996 200.88 248.39 200.507 248.71 200.08H251.302V226H247.878ZM256.406 226V223.568L262.998 213.296C263.488 212.528 263.936 211.813 264.342 211.152C264.768 210.491 265.11 209.797 265.366 209.072C265.643 208.325 265.782 207.472 265.782 206.512C265.782 205.317 265.59 204.379 265.206 203.696C264.822 203.013 264.15 202.672 263.19 202.672C262.379 202.672 261.75 202.896 261.302 203.344C260.854 203.792 260.544 204.379 260.374 205.104C260.203 205.829 260.118 206.608 260.118 207.44V208.304H256.694V207.408C256.694 205.851 256.896 204.517 257.302 203.408C257.728 202.277 258.4 201.403 259.318 200.784C260.256 200.165 261.494 199.856 263.03 199.856C265.12 199.856 266.678 200.453 267.702 201.648C268.726 202.821 269.238 204.453 269.238 206.544C269.238 207.653 269.099 208.624 268.822 209.456C268.566 210.288 268.224 211.067 267.798 211.792C267.371 212.517 266.902 213.264 266.39 214.032L260.438 223.12H268.63V226H256.406ZM277.991 226.288C276.583 226.288 275.41 226.021 274.471 225.488C273.532 224.955 272.828 224.187 272.359 223.184C271.89 222.181 271.655 220.997 271.655 219.632V218.768H275.047C275.047 218.853 275.047 218.949 275.047 219.056C275.047 219.141 275.047 219.237 275.047 219.344C275.068 220.112 275.154 220.805 275.303 221.424C275.474 222.043 275.762 222.533 276.167 222.896C276.594 223.259 277.202 223.44 277.991 223.44C278.823 223.44 279.452 223.248 279.879 222.864C280.306 222.459 280.594 221.893 280.743 221.168C280.892 220.443 280.967 219.611 280.967 218.672C280.967 217.307 280.711 216.197 280.199 215.344C279.708 214.469 278.834 213.989 277.575 213.904C277.511 213.883 277.426 213.872 277.319 213.872C277.234 213.872 277.159 213.872 277.095 213.872V210.448C277.159 210.448 277.234 210.448 277.319 210.448C277.404 210.448 277.479 210.448 277.543 210.448C278.759 210.405 279.634 210.085 280.167 209.488C280.7 208.891 280.967 207.899 280.967 206.512C280.967 205.339 280.764 204.4 280.359 203.696C279.975 202.992 279.196 202.64 278.023 202.64C276.85 202.64 276.071 203.035 275.687 203.824C275.303 204.592 275.09 205.584 275.047 206.8C275.047 206.885 275.047 206.981 275.047 207.088C275.047 207.173 275.047 207.259 275.047 207.344H271.655V206.48C271.655 205.093 271.89 203.909 272.359 202.928C272.828 201.947 273.532 201.189 274.471 200.656C275.431 200.123 276.615 199.856 278.023 199.856C279.452 199.856 280.636 200.123 281.575 200.656C282.514 201.189 283.218 201.957 283.687 202.96C284.156 203.941 284.391 205.125 284.391 206.512C284.391 208.069 284.05 209.317 283.367 210.256C282.706 211.195 281.81 211.835 280.679 212.176C281.468 212.411 282.13 212.816 282.663 213.392C283.218 213.968 283.644 214.704 283.943 215.6C284.242 216.475 284.391 217.499 284.391 218.672C284.391 220.208 284.178 221.552 283.751 222.704C283.324 223.835 282.642 224.72 281.703 225.36C280.764 225.979 279.527 226.288 277.991 226.288ZM287.193 217.648V215.056H294.329V217.648H287.193ZM304.706 226V219.056H297.186V215.472L303.938 200.08H307.97V216.016H310.882V219.056H307.97V226H304.706ZM300.482 216.016H304.706V204.24L300.482 216.016ZM319.151 226.256C317.594 226.256 316.356 225.957 315.439 225.36C314.522 224.763 313.86 223.899 313.455 222.768C313.071 221.637 312.879 220.293 312.879 218.736H316.303C316.303 219.504 316.367 220.261 316.495 221.008C316.623 221.733 316.89 222.341 317.295 222.832C317.722 223.301 318.362 223.536 319.215 223.536C320.154 223.536 320.826 223.269 321.231 222.736C321.636 222.181 321.892 221.445 321.999 220.528C322.106 219.589 322.159 218.533 322.159 217.36C322.159 216.187 322.095 215.195 321.967 214.384C321.839 213.552 321.572 212.923 321.167 212.496C320.762 212.048 320.122 211.824 319.247 211.824C318.543 211.824 317.946 212.048 317.455 212.496C316.964 212.923 316.602 213.413 316.367 213.968H313.455V200.08H324.623V203.504H316.559L316.335 210.672C316.762 210.224 317.284 209.872 317.903 209.616C318.543 209.36 319.268 209.232 320.079 209.232C321.487 209.232 322.586 209.563 323.375 210.224C324.186 210.885 324.751 211.792 325.071 212.944C325.412 214.096 325.583 215.419 325.583 216.912C325.583 218.235 325.487 219.472 325.295 220.624C325.103 221.755 324.762 222.747 324.271 223.6C323.802 224.432 323.151 225.083 322.319 225.552C321.487 226.021 320.431 226.256 319.151 226.256ZM334.818 226.288C333.324 226.288 332.108 225.915 331.17 225.168C330.231 224.4 329.538 223.376 329.09 222.096C328.663 220.795 328.45 219.355 328.45 217.776V209.04C328.45 207.355 328.642 205.819 329.026 204.432C329.41 203.045 330.06 201.936 330.978 201.104C331.916 200.272 333.196 199.856 334.818 199.856C336.162 199.856 337.292 200.101 338.21 200.592C339.148 201.083 339.863 201.797 340.354 202.736C340.866 203.675 341.132 204.816 341.154 206.16C341.154 206.203 341.154 206.267 341.154 206.352C341.175 206.416 341.186 206.48 341.186 206.544H337.73C337.73 205.285 337.527 204.325 337.122 203.664C336.716 203.003 335.948 202.672 334.818 202.672C334.199 202.672 333.666 202.875 333.218 203.28C332.77 203.664 332.428 204.261 332.194 205.072C331.98 205.883 331.874 206.928 331.874 208.208V212.144C332.215 211.611 332.695 211.184 333.314 210.864C333.954 210.523 334.732 210.352 335.65 210.352C337.079 210.352 338.199 210.661 339.01 211.28C339.82 211.899 340.396 212.773 340.738 213.904C341.079 215.013 341.25 216.325 341.25 217.84C341.25 219.397 341.036 220.816 340.61 222.096C340.183 223.376 339.5 224.4 338.562 225.168C337.623 225.915 336.375 226.288 334.818 226.288ZM334.818 223.44C335.586 223.44 336.183 223.227 336.61 222.8C337.036 222.352 337.335 221.765 337.506 221.04C337.698 220.315 337.794 219.525 337.794 218.672C337.794 217.648 337.74 216.699 337.634 215.824C337.548 214.949 337.303 214.256 336.898 213.744C336.492 213.211 335.799 212.944 334.818 212.944C334.348 212.944 333.922 213.029 333.538 213.2C333.154 213.371 332.823 213.595 332.546 213.872C332.268 214.128 332.044 214.405 331.874 214.704V218.576C331.874 219.451 331.959 220.261 332.13 221.008C332.322 221.755 332.631 222.352 333.058 222.8C333.484 223.227 334.071 223.44 334.818 223.44ZM345.664 226L350.336 202.768H343.392V200.08H353.76V201.744L348.96 226H345.664Z" fill="white"/>
<path d="M182.576 302.208C181.36 302.187 180.357 301.867 179.568 301.248C178.8 300.651 178.192 299.819 177.744 298.752C177.296 297.685 176.965 296.469 176.752 295.104C176.56 293.739 176.443 292.277 176.4 290.72C176.357 289.163 176.336 287.605 176.336 286.048C176.336 284.469 176.357 282.912 176.4 281.376C176.443 279.819 176.56 278.357 176.752 276.992C176.965 275.605 177.296 274.379 177.744 273.312C178.192 272.245 178.8 271.403 179.568 270.784C180.357 270.165 181.36 269.856 182.576 269.856V272.16C181.829 272.181 181.253 272.608 180.848 273.44C180.443 274.251 180.155 275.328 179.984 276.672C179.813 278.016 179.707 279.509 179.664 281.152C179.643 282.773 179.632 284.405 179.632 286.048C179.632 287.712 179.643 289.365 179.664 291.008C179.707 292.629 179.813 294.112 179.984 295.456C180.155 296.8 180.443 297.877 180.848 298.688C181.253 299.499 181.829 299.915 182.576 299.936V302.208ZM184.843 296V293.568L191.435 283.296C191.926 282.528 192.374 281.813 192.779 281.152C193.206 280.491 193.547 279.797 193.803 279.072C194.081 278.325 194.219 277.472 194.219 276.512C194.219 275.317 194.027 274.379 193.643 273.696C193.259 273.013 192.587 272.672 191.627 272.672C190.817 272.672 190.187 272.896 189.739 273.344C189.291 273.792 188.982 274.379 188.811 275.104C188.641 275.829 188.555 276.608 188.555 277.44V278.304H185.131V277.408C185.131 275.851 185.334 274.517 185.739 273.408C186.166 272.277 186.838 271.403 187.755 270.784C188.694 270.165 189.931 269.856 191.467 269.856C193.558 269.856 195.115 270.453 196.139 271.648C197.163 272.821 197.675 274.453 197.675 276.544C197.675 277.653 197.537 278.624 197.259 279.456C197.003 280.288 196.662 281.067 196.235 281.792C195.809 282.517 195.339 283.264 194.827 284.032L188.875 293.12H197.067V296H184.843ZM204.285 296V274.56C204.263 274.581 204.018 274.645 203.549 274.752C203.101 274.859 202.589 274.965 202.013 275.072C201.437 275.179 200.925 275.275 200.477 275.36C200.029 275.445 199.794 275.488 199.773 275.488V272.896C200.135 272.811 200.551 272.693 201.021 272.544C201.511 272.395 202.002 272.213 202.493 272C203.005 271.787 203.485 271.52 203.933 271.2C204.402 270.88 204.797 270.507 205.117 270.08H207.709V296H204.285ZM212.812 296V293.568L219.404 283.296C219.895 282.528 220.343 281.813 220.748 281.152C221.175 280.491 221.516 279.797 221.772 279.072C222.049 278.325 222.188 277.472 222.188 276.512C222.188 275.317 221.996 274.379 221.612 273.696C221.228 273.013 220.556 272.672 219.596 272.672C218.785 272.672 218.156 272.896 217.708 273.344C217.26 273.792 216.951 274.379 216.78 275.104C216.609 275.829 216.524 276.608 216.524 277.44V278.304H213.1V277.408C213.1 275.851 213.303 274.517 213.708 273.408C214.135 272.277 214.807 271.403 215.724 270.784C216.663 270.165 217.9 269.856 219.436 269.856C221.527 269.856 223.084 270.453 224.108 271.648C225.132 272.821 225.644 274.453 225.644 276.544C225.644 277.653 225.505 278.624 225.228 279.456C224.972 280.288 224.631 281.067 224.204 281.792C223.777 282.517 223.308 283.264 222.796 284.032L216.844 293.12H225.036V296H212.812ZM227.709 302.208V299.904C228.477 299.883 229.064 299.456 229.469 298.624C229.875 297.813 230.163 296.736 230.333 295.392C230.504 294.048 230.6 292.555 230.621 290.912C230.664 289.269 230.685 287.627 230.685 285.984C230.685 284.32 230.664 282.677 230.621 281.056C230.6 279.413 230.504 277.931 230.333 276.608C230.163 275.264 229.875 274.187 229.469 273.376C229.064 272.565 228.477 272.149 227.709 272.128V269.856C228.947 269.856 229.949 270.165 230.717 270.784C231.507 271.381 232.125 272.213 232.573 273.28C233.021 274.347 233.341 275.573 233.533 276.96C233.747 278.325 233.875 279.776 233.917 281.312C233.96 282.848 233.981 284.405 233.981 285.984C233.981 287.563 233.96 289.131 233.917 290.688C233.875 292.224 233.747 293.685 233.533 295.072C233.341 296.459 233.021 297.685 232.573 298.752C232.125 299.819 231.507 300.651 230.717 301.248C229.949 301.867 228.947 302.187 227.709 302.208ZM247.878 296V274.56C247.857 274.581 247.612 274.645 247.142 274.752C246.694 274.859 246.182 274.965 245.606 275.072C245.03 275.179 244.518 275.275 244.07 275.36C243.622 275.445 243.388 275.488 243.366 275.488V272.896C243.729 272.811 244.145 272.693 244.614 272.544C245.105 272.395 245.596 272.213 246.086 272C246.598 271.787 247.078 271.52 247.526 271.2C247.996 270.88 248.39 270.507 248.71 270.08H251.302V296H247.878ZM256.406 296V293.568L262.998 283.296C263.488 282.528 263.936 281.813 264.342 281.152C264.768 280.491 265.11 279.797 265.366 279.072C265.643 278.325 265.782 277.472 265.782 276.512C265.782 275.317 265.59 274.379 265.206 273.696C264.822 273.013 264.15 272.672 263.19 272.672C262.379 272.672 261.75 272.896 261.302 273.344C260.854 273.792 260.544 274.379 260.374 275.104C260.203 275.829 260.118 276.608 260.118 277.44V278.304H256.694V277.408C256.694 275.851 256.896 274.517 257.302 273.408C257.728 272.277 258.4 271.403 259.318 270.784C260.256 270.165 261.494 269.856 263.03 269.856C265.12 269.856 266.678 270.453 267.702 271.648C268.726 272.821 269.238 274.453 269.238 276.544C269.238 277.653 269.099 278.624 268.822 279.456C268.566 280.288 268.224 281.067 267.798 281.792C267.371 282.517 266.902 283.264 266.39 284.032L260.438 293.12H268.63V296H256.406ZM277.991 296.288C276.583 296.288 275.41 296.021 274.471 295.488C273.532 294.955 272.828 294.187 272.359 293.184C271.89 292.181 271.655 290.997 271.655 289.632V288.768H275.047C275.047 288.853 275.047 288.949 275.047 289.056C275.047 289.141 275.047 289.237 275.047 289.344C275.068 290.112 275.154 290.805 275.303 291.424C275.474 292.043 275.762 292.533 276.167 292.896C276.594 293.259 277.202 293.44 277.991 293.44C278.823 293.44 279.452 293.248 279.879 292.864C280.306 292.459 280.594 291.893 280.743 291.168C280.892 290.443 280.967 289.611 280.967 288.672C280.967 287.307 280.711 286.197 280.199 285.344C279.708 284.469 278.834 283.989 277.575 283.904C277.511 283.883 277.426 283.872 277.319 283.872C277.234 283.872 277.159 283.872 277.095 283.872V280.448C277.159 280.448 277.234 280.448 277.319 280.448C277.404 280.448 277.479 280.448 277.543 280.448C278.759 280.405 279.634 280.085 280.167 279.488C280.7 278.891 280.967 277.899 280.967 276.512C280.967 275.339 280.764 274.4 280.359 273.696C279.975 272.992 279.196 272.64 278.023 272.64C276.85 272.64 276.071 273.035 275.687 273.824C275.303 274.592 275.09 275.584 275.047 276.8C275.047 276.885 275.047 276.981 275.047 277.088C275.047 277.173 275.047 277.259 275.047 277.344H271.655V276.48C271.655 275.093 271.89 273.909 272.359 272.928C272.828 271.947 273.532 271.189 274.471 270.656C275.431 270.123 276.615 269.856 278.023 269.856C279.452 269.856 280.636 270.123 281.575 270.656C282.514 271.189 283.218 271.957 283.687 272.96C284.156 273.941 284.391 275.125 284.391 276.512C284.391 278.069 284.05 279.317 283.367 280.256C282.706 281.195 281.81 281.835 280.679 282.176C281.468 282.411 282.13 282.816 282.663 283.392C283.218 283.968 283.644 284.704 283.943 285.6C284.242 286.475 284.391 287.499 284.391 288.672C284.391 290.208 284.178 291.552 283.751 292.704C283.324 293.835 282.642 294.72 281.703 295.36C280.764 295.979 279.527 296.288 277.991 296.288ZM287.193 287.648V285.056H294.329V287.648H287.193ZM304.706 296V289.056H297.186V285.472L303.938 270.08H307.97V286.016H310.882V289.056H307.97V296H304.706ZM300.482 286.016H304.706V274.24L300.482 286.016ZM319.151 296.256C317.594 296.256 316.356 295.957 315.439 295.36C314.522 294.763 313.86 293.899 313.455 292.768C313.071 291.637 312.879 290.293 312.879 288.736H316.303C316.303 289.504 316.367 290.261 316.495 291.008C316.623 291.733 316.89 292.341 317.295 292.832C317.722 293.301 318.362 293.536 319.215 293.536C320.154 293.536 320.826 293.269 321.231 292.736C321.636 292.181 321.892 291.445 321.999 290.528C322.106 289.589 322.159 288.533 322.159 287.36C322.159 286.187 322.095 285.195 321.967 284.384C321.839 283.552 321.572 282.923 321.167 282.496C320.762 282.048 320.122 281.824 319.247 281.824C318.543 281.824 317.946 282.048 317.455 282.496C316.964 282.923 316.602 283.413 316.367 283.968H313.455V270.08H324.623V273.504H316.559L316.335 280.672C316.762 280.224 317.284 279.872 317.903 279.616C318.543 279.36 319.268 279.232 320.079 279.232C321.487 279.232 322.586 279.563 323.375 280.224C324.186 280.885 324.751 281.792 325.071 282.944C325.412 284.096 325.583 285.419 325.583 286.912C325.583 288.235 325.487 289.472 325.295 290.624C325.103 291.755 324.762 292.747 324.271 293.6C323.802 294.432 323.151 295.083 322.319 295.552C321.487 296.021 320.431 296.256 319.151 296.256ZM334.818 296.288C333.324 296.288 332.108 295.915 331.17 295.168C330.231 294.4 329.538 293.376 329.09 292.096C328.663 290.795 328.45 289.355 328.45 287.776V279.04C328.45 277.355 328.642 275.819 329.026 274.432C329.41 273.045 330.06 271.936 330.978 271.104C331.916 270.272 333.196 269.856 334.818 269.856C336.162 269.856 337.292 270.101 338.21 270.592C339.148 271.083 339.863 271.797 340.354 272.736C340.866 273.675 341.132 274.816 341.154 276.16C341.154 276.203 341.154 276.267 341.154 276.352C341.175 276.416 341.186 276.48 341.186 276.544H337.73C337.73 275.285 337.527 274.325 337.122 273.664C336.716 273.003 335.948 272.672 334.818 272.672C334.199 272.672 333.666 272.875 333.218 273.28C332.77 273.664 332.428 274.261 332.194 275.072C331.98 275.883 331.874 276.928 331.874 278.208V282.144C332.215 281.611 332.695 281.184 333.314 280.864C333.954 280.523 334.732 280.352 335.65 280.352C337.079 280.352 338.199 280.661 339.01 281.28C339.82 281.899 340.396 282.773 340.738 283.904C341.079 285.013 341.25 286.325 341.25 287.84C341.25 289.397 341.036 290.816 340.61 292.096C340.183 293.376 339.5 294.4 338.562 295.168C337.623 295.915 336.375 296.288 334.818 296.288ZM334.818 293.44C335.586 293.44 336.183 293.227 336.61 292.8C337.036 292.352 337.335 291.765 337.506 291.04C337.698 290.315 337.794 289.525 337.794 288.672C337.794 287.648 337.74 286.699 337.634 285.824C337.548 284.949 337.303 284.256 336.898 283.744C336.492 283.211 335.799 282.944 334.818 282.944C334.348 282.944 333.922 283.029 333.538 283.2C333.154 283.371 332.823 283.595 332.546 283.872C332.268 284.128 332.044 284.405 331.874 284.704V288.576C331.874 289.451 331.959 290.261 332.13 291.008C332.322 291.755 332.631 292.352 333.058 292.8C333.484 293.227 334.071 293.44 334.818 293.44ZM345.664 296L350.336 272.768H343.392V270.08H353.76V271.744L348.96 296H345.664Z" fill="white"/>
<line x1="114" y1="443.5" x2="974" y2="443.5" stroke="white"/>
<path d="M903.74 123H883.26C877.603 123 873 127.682 873 133.436V152.493C873 158.248 877.603 162.929 883.26 162.929H903.74C909.397 162.929 914 158.248 914 152.493V133.436C914 127.682 909.397 123 903.74 123ZM876.62 133.436C876.62 129.712 879.599 126.682 883.26 126.682H903.74C907.401 126.682 910.38 129.712 910.38 133.436V152.493C910.38 156.217 907.401 159.248 903.74 159.248H883.26C879.599 159.248 876.62 156.217 876.62 152.493V133.436Z" fill="white"/>
<path d="M893.956 153.219C899.469 153.219 903.956 148.742 903.956 143.237C903.956 137.732 899.471 133.255 893.956 133.255C888.441 133.255 883.956 137.732 883.956 143.237C883.956 148.742 888.441 153.219 893.956 153.219ZM893.956 137.043C897.379 137.043 900.164 139.822 900.164 143.24C900.164 146.657 897.379 149.436 893.956 149.436C890.533 149.436 887.749 146.657 887.749 143.24C887.749 139.822 890.533 137.043 893.956 137.043Z" fill="white"/>
<path d="M903.856 134.583C905.233 134.583 906.356 133.465 906.356 132.088C906.356 130.71 905.236 129.592 903.856 129.592C902.476 129.592 901.356 130.71 901.356 132.088C901.356 133.465 902.476 134.583 903.856 134.583Z" fill="white"/>
<path d="M892.5 294C892.5 294 907 279.785 907 269C907 265.022 905.472 261.206 902.753 258.393C900.034 255.58 896.346 254 892.5 254C888.654 254 884.966 255.58 882.247 258.393C879.528 261.206 878 265.022 878 269C878 279.785 892.5 294 892.5 294ZM892.5 276.5C890.577 276.5 888.733 275.71 887.373 274.303C886.014 272.897 885.25 270.989 885.25 269C885.25 267.011 886.014 265.103 887.373 263.697C888.733 262.29 890.577 261.5 892.5 261.5C894.423 261.5 896.267 262.29 897.627 263.697C898.986 265.103 899.75 267.011 899.75 269C899.75 270.989 898.986 272.897 897.627 274.303C896.267 275.71 894.423 276.5 892.5 276.5Z" fill="white"/>
<path d="M878.17 196.044H873.575C872.263 196.044 872 196.662 872 197.344C872 198.562 873.558 204.601 879.253 212.588C883.05 218.043 888.4 221 893.267 221C896.188 221 896.549 220.343 896.549 219.212V215.089C896.549 213.776 896.826 213.514 897.751 213.514C898.433 213.514 899.601 213.855 902.327 216.485C905.442 219.601 905.956 221 907.708 221H912.303C913.616 221 914.272 220.343 913.894 219.047C913.479 217.755 911.992 215.881 910.018 213.66C908.947 212.393 907.341 211.03 906.854 210.348C906.172 209.471 906.367 209.082 906.854 208.302L906.936 208.186C907.628 207.202 912.494 200.221 913.036 197.734C913.328 196.76 913.036 196.044 911.647 196.044H907.052C905.884 196.044 905.345 196.662 905.053 197.344C905.053 197.344 902.716 203.042 899.406 206.744C898.335 207.815 897.848 208.156 897.264 208.156C896.972 208.156 896.549 207.815 896.549 206.841V197.734C896.549 196.565 896.21 196.044 895.237 196.044H888.016C887.286 196.044 886.847 196.586 886.847 197.101C886.847 198.209 888.502 198.464 888.673 201.581V208.351C888.673 209.835 888.405 210.104 887.821 210.104C886.263 210.104 882.474 204.381 880.227 197.831C879.786 196.558 879.345 196.044 878.17 196.044Z" fill="white"/>
<defs>
<filter id="filter0_d_4_24" x="0" y="0" width="1088" height="661" filterUnits="userSpaceOnUse" color-interpolation-filters="sRGB">
<feFlood flood-opacity="0" result="BackgroundImageFix"/>
<feColorMatrix in="SourceAlpha" type="matrix" values="0 0 0 0 0 0 0 0 0 0 0 0 0 0 0 0 0 0 127 0" result="hardAlpha"/>
<feOffset dy="4"/>
<feGaussianBlur stdDeviation="2"/>
<feComposite in2="hardAlpha" operator="out"/>
<feColorMatrix type="matrix" values="0 0 0 0 0 0 0 0 0 0 0 0 0 0 0 0 0 0 0.25 0"/>
<feBlend mode="normal" in2="BackgroundImageFix" result="effect1_dropShadow_4_24"/>
<feBlend mode="normal" in="SourceGraphic" in2="effect1_dropShadow_4_24" result="shape"/>
</filter>
</defs>
</svg>
